# xmcd
#
# Track frame offsets:
#	150
#	12702
#	26437
#	40337
#	53505
#	67302
#	80470
#	93777
#	106600
#	120867
#	134727
#	148545
#	162127
#	175050
#	189167
#	202459
#	215990
#	229712
#	241730
#	255887
#	268995
#
# Disc length: 3722 seconds
#
# Revision: 1
# Processed by: cddbd v1.4PL0 Copyright (c) Steve Scherf et al.
# Submitted via: audiograbber 1.82.01
#
DISCID=240e8815
DTITLE=Boyd Eddie - The Complete Recordings 1947-1950
DYEAR=2001
DGENRE=Blues
TTITLE0=I Had To Let Her Go
TTITLE1=Kilroy Won't Back
TTITLE2=You Got To Leave That Gal
TTITLE3=Rosa Lee Swing
TTITLE4=Unfair Lovers
TTITLE5=Blue Monday Blues
TTITLE6=Why Did She Leave Me
TTITLE7=Playmate Shuffle
TTITLE8=Mr Highway Man
TTITLE9=Getting My Divorce
TTITLE10=What Makes These Things Happen To Me
TTITLE11=Baby What's Wrong With You
TTITLE12=Chicago Is Just That Way
TTITLE13=Eddie's Blues
TTITLE14=I Can Trust My Baby
TTITLE15=Down Beat Rhythm
TTITLE16=Something Good Will Come To Me
TTITLE17=Why Don't You Be Wise Baby
TTITLE18=I Gotta Find My Baby
TTITLE19=Lonesome For My Baby
TTITLE20=I'm Goin Downtown
EXTD=
EXTT0=
EXTT1=
EXTT2=
EXTT3=
EXTT4=
EXTT5=
EXTT6=
EXTT7=
EXTT8=
EXTT9=
EXTT10=
EXTT11=
EXTT12=
EXTT13=
EXTT14=
EXTT15=
EXTT16=
EXTT17=
EXTT18=
EXTT19=
EXTT20=
PLAYORDER=
